<svg width="18" height="20" viewBox="0 0 18 20" fill="none" xmlns="http://www.w3.org/2000/svg">
<path fill-rule="evenodd" clip-rule="evenodd" d="M9 20C10.6569 20 12 18.6569 12 17C12 15.3431 10.6569 14 9 14C7.34315 14 6 15.3431 6 17C6 18.6569 7.34315 20 9 20Z" fill="#4A5568"/>
<path fill-rule="evenodd" clip-rule="evenodd" d="M7.02 2.28396C7.00682 2.1912 7 2.0964 7 2C7 0.89543 7.89543 0 9 0C10.1046 0 11 0.89543 11 2C11 2.0964 10.9932 2.1912 10.98 2.28396C13.8818 3.13808 16 5.82167 16 9V14C16 14.5523 16.4477 15 17 15C17.5523 15 18 15.4477 18 16C18 16.5523 17.5523 17 17 17H1C0.447715 17 0 16.5523 0 16C0 15.4477 0.447715 15 1 15C1.55228 15 2 14.5523 2 14V9C2 5.82167 4.11824 3.13808 7.02 2.28396Z" fill="#A0AEC0"/>
</svg>
