<svg width="45" height="30" viewBox="0 0 45 30" fill="none" xmlns="http://www.w3.org/2000/svg">
<path fill-rule="evenodd" clip-rule="evenodd" d="M42.9111 11.7993L35.2129 7.3546V28H44.2129V30H0.212891V28H4.21289V15.2807L0.485071 16.2127L0 14.2724L21.0896 9H24.2119C23.8673 9.81742 23.6383 10.6793 23.5316 11.5586L23.0495 15.5336L28.2129 12.5524V28H33.2129V7.35582L25.5166 11.7994C25.7383 9.97178 26.6279 8.24351 28.082 6.99998H23.9629C25.3311 5.17833 27.5098 3.99998 29.9639 3.99998C30.1807 3.99998 30.3965 4.00926 30.6084 4.02745L25.0166 0.798811C27.1123 -0.0946215 29.5879 -0.0258959 31.7129 1.20103C32.752 1.80076 33.5938 2.61168 34.2139 3.5482C34.834 2.61168 35.6748 1.80076 36.7139 1.20103C38.8389 -0.0258959 41.3154 -0.0946215 43.4111 0.798811L37.8184 4.02745C38.0312 4.00926 38.2471 3.99998 38.4648 3.99998C40.918 3.99998 43.0967 5.17833 44.4648 6.99998H40.3447C41.7998 8.24351 42.6895 9.97178 42.9111 11.7993ZM24.2129 28V18H18.2129V28H24.2129ZM13.2129 20C13.2129 21.1046 12.3175 22 11.2129 22C10.1083 22 9.21289 21.1046 9.21289 20C9.21289 18.8954 10.1083 18 11.2129 18C12.3175 18 13.2129 18.8954 13.2129 20Z" fill="#A3BFFA"/>
</svg>
